PathFileType	4	(X/Y/Z)	/Users/itak/Documents/Research/Walk-IL/dataset/trc/00007_00004.trc
DataRate	CameraRate	NumFrames	NumMarkers	Units	OrigDataRate	OrigDataStartFrame	OrigNumFrames
100.000000	100.000000	4	53	mm	100.000000	0	580
Frame#	Time	RPSI			LPSI			L3			STRN			T10			C7			CLAV			RBAK			LBAK			LSHO			LUPA			LAEL			LAOL			LWTS			LWPS			LFRA			LIFD			LHPS			LHTS			RSHO			RUPA			RAEL			RAOL			RWTS			RWPS			RFRA			RIFD			RHTS			RHPS			RBHD			LFHD			RFHD			LBHD			LHIP			RHIP			RASI			LASI			LKNE			LTHI			LANK			LTIP			LTOE			LMT1			LMT5			LHEE			RKNE			RTHI			RANK			RTIP			RTOE			RMT1			RMT5			RHEE			
		X1	Y1	Z1	X2	Y2	Z2	X3	Y3	Z3	X4	Y4	Z4	X5	Y5	Z5	X6	Y6	Z6	X7	Y7	Z7	X8	Y8	Z8	X9	Y9	Z9	X10	Y10	Z10	X11	Y11	Z11	X12	Y12	Z12	X13	Y13	Z13	X14	Y14	Z14	X15	Y15	Z15	X16	Y16	Z16	X17	Y17	Z17	X18	Y18	Z18	X19	Y19	Z19	X20	Y20	Z20	X21	Y21	Z21	X22	Y22	Z22	X23	Y23	Z23	X24	Y24	Z24	X25	Y25	Z25	X26	Y26	Z26	X27	Y27	Z27	X28	Y28	Z28	X29	Y29	Z29	X30	Y30	Z30	X31	Y31	Z31	X32	Y32	Z32	X33	Y33	Z33	X34	Y34	Z34	X35	Y35	Z35	X36	Y36	Z36	X37	Y37	Z37	X38	Y38	Z38	X39	Y39	Z39	X40	Y40	Z40	X41	Y41	Z41	X42	Y42	Z42	X43	Y43	Z43	X44	Y44	Z44	X45	Y45	Z45	X46	Y46	Z46	X47	Y47	Z47	X48	Y48	Z48	X49	Y49	Z49	X50	Y50	Z50	X51	Y51	Z51	X52	Y52	Z52	X53	Y53	Z53	

1	0	-1228.687133789062	1067.484497070312	-179.2694854736328	-1239.79833984375	1061.050903320312	-343.0923156738281	-1242.128784179688	1128.222290039062	-269.5979309082031	-1026.803955078125	1325.866088867188	-271.5616149902344	-1272.973999023438	1266.919067382812	-270.3258666992188	-1238.041748046875	1536.206665039062	-283.8269348144531	-1074.366577148438	1449.84326171875	-276.7881774902344	-1282.7509765625	1398.311401367188	-202.574951171875	-1252.490600585938	1493.493286132812	-381.7203979492188	-1148.934692382812	1502.95654296875	-454.4002075195312	-1173.47900390625	1376.483032226562	-531.440673828125	-1167.56982421875	1157.993896484375	-553.2066040039062	-1225.273315429688	1145.672119140625	-464.9661254882812	-1077.824584960938	906.9227905273438	-493.56298828125	-1153.518920898438	891.117919921875	-536.660400390625	-1152.885620117188	1042.3486328125	-557.6639404296875	-1048.750854492188	724.52099609375	-471.1917114257812	-1119.564331054688	802.2703857421875	-534.54052734375	-1052.920288085938	814.7872314453125	-505.6400756835938	-1159.986694335938	1528.119018554688	-108.7960357666016	-1169.826049804688	1455.932739257812	-35.00938415527344	-1193.009155273438	1185.774291992188	-11.46836948394775	-1195.144409179688	1157.458984375	-107.933235168457	-1054.821533203125	930.5465698242188	-41.12128067016602	-1120.375610351562	914.9307250976562	23.444091796875	-1176.758178710938	1110.943115234375	4.158326148986816	-1035.132690429688	745.9180908203125	-54.14432907104492	-1020.14697265625	821.6546020507812	-24.58643913269043	-1077.059204101562	815.8009033203125	23.67919540405273	-1218.115600585938	1716.46240234375	-321.3970031738281	-1011.982971191406	1748.020141601562	-256.0292053222656	-1040.616577148438	1748.521728515625	-349.9945678710938	-1169.708618164062	1712.406982421875	-185.3768005371094	-1145.42333984375	962.9636840820312	-453.734130859375	-1111.258911132812	963.7987670898438	-82.14923095703125	-1009.776794433594	996.4763793945312	-161.6898193359375	-1028.416870117188	1010.46484375	-396.3722534179688	-1110.821533203125	517.1373901367188	-405.3230285644531	-1130.489501953125	654.4503173828125	-440.7711181640625	-1212.338623046875	42.04839324951172	-403.6874694824219	-1193.611450195312	288.7837524414062	-422.8853759765625	-992.8790893554688	43.06490325927734	-338.1053161621094	-1052.08251953125	50.91921234130859	-320.2648010253906	-1087.510986328125	40.59056091308594	-420.2234497070312	-1282.388305664062	48.66053771972656	-350.6554565429688	-1112.945922851562	526.4293823242188	-128.7964935302734	-1088.45703125	795.5836181640625	-86.58417510986328	-1231.376708984375	47.34709548950195	-147.8578796386719	-1142.218017578125	405.2049255371094	-127.0787658691406	-997.91162109375	45.12897872924805	-179.2488861083984	-1059.363647460938	49.78744125366211	-212.3252716064453	-1082.345825195312	45.39430999755859	-117.8232574462891	-1285.3525390625	48.22375869750977	-195.3069763183594	
2	0.01	-1228.69189453125	1067.468872070312	-179.2349243164062	-1239.806396484375	1061.0556640625	-343.0706176757812	-1242.117553710938	1128.212890625	-269.5549926757812	-1026.792236328125	1325.861938476562	-271.5486145019531	-1272.941040039062	1266.926635742188	-270.2550354003906	-1238.023803710938	1536.219604492188	-283.75732421875	-1074.3876953125	1449.822631835938	-276.7637329101562	-1282.736083984375	1398.307250976562	-202.5057067871094	-1252.524536132812	1493.50634765625	-381.6947631835938	-1148.963012695312	1502.94677734375	-454.3546752929688	-1173.533813476562	1376.498168945312	-531.3897094726562	-1167.646606445312	1158.006103515625	-553.1910400390625	-1225.312133789062	1145.686279296875	-464.9166870117188	-1078.004516601562	906.8837280273438	-493.578369140625	-1153.691772460938	891.1309204101562	-536.6771240234375	-1152.95849609375	1042.363525390625	-557.646240234375	-1048.963012695312	724.5382080078125	-471.1939086914062	-1119.6025390625	802.2427368164062	-534.5468139648438	-1053.116333007812	814.7965698242188	-505.6865539550781	-1159.91357421875	1528.094482421875	-108.7454223632812	-1169.760620117188	1455.91943359375	-34.96633148193359	-1192.878662109375	1185.766723632812	-11.39439582824707	-1195.079711914062	1157.443603515625	-107.8695220947266	-1054.644775390625	930.5770263671875	-41.12688446044922	-1120.124267578125	914.9434204101562	23.49518775939941	-1176.600341796875	1110.919311523438	4.226257801055908	-1034.836791992188	745.932861328125	-54.20302581787109	-1019.917236328125	821.6502685546875	-24.63016891479492	-1076.626586914062	815.8507080078125	23.6342945098877	-1218.101806640625	1716.476196289062	-321.2191772460938	-1011.845275878906	1747.989990234375	-256.2082824707031	-1040.644409179688	1748.4833984375	-350.1227111816406	-1169.44921875	1712.385375976562	-185.2867431640625	-1145.447143554688	962.962646484375	-453.7097778320312	-1111.217041015625	963.7964477539062	-82.10802459716797	-1009.772827148438	996.47509765625	-161.6711730957031	-1028.416137695312	1010.475280761719	-396.3595581054688	-1110.817504882812	517.138427734375	-405.3163757324219	-1130.462768554688	654.4364624023438	-440.756591796875	-1212.330688476562	42.04572677612305	-403.6952209472656	-1193.615356445312	288.7826538085938	-422.8820190429688	-992.8884887695312	43.01820755004883	-338.0903930664062	-1052.078369140625	50.87489700317383	-320.2478637695312	-1087.511596679688	40.59101104736328	-420.2216796875	-1282.404296875	48.66755294799805	-350.6558532714844	-1112.921142578125	526.452880859375	-128.7843627929688	-1088.47509765625	795.5985107421875	-86.54629516601562	-1231.369995117188	47.34899139404297	-147.8601684570312	-1142.208129882812	405.1986694335938	-127.0819320678711	-997.9078369140625	45.13566970825195	-179.2479400634766	-1059.355834960938	49.78112411499023	-212.3213806152344	-1082.353637695312	45.39962768554688	-117.8326034545898	-1285.367431640625	48.23397064208984	-195.3092803955078	
3	0.02	-1228.689819335938	1067.450805664062	-179.1902618408203	-1239.816162109375	1061.060668945312	-343.0415954589844	-1242.102416992188	1128.201171875	-269.5002136230469	-1026.778564453125	1325.853271484375	-271.5343322753906	-1272.9150390625	1266.930541992188	-270.1701354980469	-1237.99951171875	1536.23388671875	-283.673583984375	-1074.411499023438	1449.797119140625	-276.7338562011719	-1282.712280273438	1398.302001953125	-202.4181823730469	-1252.562622070312	1493.517944335938	-381.6584777832031	-1148.996337890625	1502.934448242188	-454.2969970703125	-1173.604614257812	1376.512573242188	-531.3258056640625	-1167.749145507812	1158.01806640625	-553.1698608398438	-1225.365478515625	1145.70068359375	-464.857666015625	-1078.207153320312	906.8491821289062	-493.6024169921875	-1153.905883789062	891.142822265625	-536.6982421875	-1153.054809570312	1042.378540039062	-557.624755859375	-1049.261962890625	724.5572509765625	-471.2002258300781	-1119.65283203125	802.203369140625	-534.5556640625	-1053.367553710938	814.8087768554688	-505.7474365234375	-1159.8193359375	1528.0654296875	-108.6814727783203	-1169.677856445312	1455.902954101562	-34.91493988037109	-1192.716186523438	1185.758056640625	-11.30163478851318	-1195.002197265625	1157.422973632812	-107.7900695800781	-1054.43212890625	930.6136474609375	-41.13074493408203	-1119.829833984375	914.9598388671875	23.55488395690918	-1176.413696289062	1110.895263671875	4.302939891815186	-1034.46826171875	745.9430541992188	-54.26171493530273	-1019.614624023438	821.6537475585938	-24.68249893188477	-1076.148193359375	815.9003295898438	23.58261108398438	-1218.083984375	1716.504150390625	-321.0027770996094	-1011.675048828125	1747.944213867188	-256.4304809570312	-1040.667358398438	1748.432373046875	-350.2837829589844	-1169.1142578125	1712.369873046875	-185.1725616455078	-1145.476318359375	962.9597778320312	-453.6781311035156	-1111.162231445312	963.7944946289062	-82.05914306640625	-1009.763916015625	996.47216796875	-161.649658203125	-1028.410766601562	1010.486755371094	-396.3419799804688	-1110.815307617188	517.13916015625	-405.307861328125	-1130.429077148438	654.4179077148438	-440.7372436523438	-1212.322875976562	42.04299926757812	-403.702880859375	-1193.6220703125	288.7803039550781	-422.8749694824219	-992.895751953125	42.94934844970703	-338.0700073242188	-1052.068115234375	50.82480621337891	-320.2289733886719	-1087.511352539062	40.59085845947266	-420.2190551757812	-1282.4169921875	48.67525863647461	-350.6566162109375	-1112.894165039062	526.4783325195312	-128.7679290771484	-1088.504272460938	795.620849609375	-86.48713684082031	-1231.352783203125	47.33817291259766	-147.8655700683594	-1142.195190429688	405.1907043457031	-127.0850219726562	-997.9031372070312	45.14154052734375	-179.2465362548828	-1059.3466796875	49.77366256713867	-212.3161163330078	-1082.3603515625	45.40529251098633	-117.8422012329102	-1285.376586914062	48.24088668823242	-195.3111877441406	
4	0.03	-1228.677124023438	1067.431762695312	-179.13671875	-1239.82666015625	1061.064819335938	-343.0063781738281	-1242.083618164062	1128.187744140625	-269.4356384277344	-1026.763305664062	1325.838745117188	-271.5201110839844	-1272.89794921875	1266.9296875	-270.0752563476562	-1237.968627929688	1536.247924804688	-283.5810241699219	-1074.4345703125	1449.76806640625	-276.7003784179688	-1282.678344726562	1398.296020507812	-202.3157348632812	-1252.600708007812	1493.52587890625	-381.6107482910156	-1149.031616210938	1502.91943359375	-454.2296752929688	-1173.689697265625	1376.523681640625	-531.2518920898438	-1167.875366210938	1158.027465820312	-553.1430053710938	-1225.433349609375	1145.713134765625	-464.7930297851562	-1078.418090820312	906.8220825195312	-493.6357421875	-1154.1513671875	891.1510009765625	-536.7227783203125	-1153.173461914062	1042.39111328125	-557.6008911132812	-1049.63525390625	724.5745849609375	-471.2105712890625	-1119.71826171875	802.1527099609375	-534.56787109375	-1053.663208007812	814.8211059570312	-505.8195495605469	-1159.706787109375	1528.0341796875	-108.6075973510742	-1169.579956054688	1455.884399414062	-34.8580207824707	-1192.529052734375	1185.748901367188	-11.1938419342041	-1194.916015625	1157.397216796875	-107.6979293823242	-1054.196655273438	930.6535034179688	-41.13079452514648	-1119.514404296875	914.9793701171875	23.61896705627441	-1176.209106445312	1110.873657226562	4.38355541229248	-1034.047485351562	745.9451293945312	-54.31047439575195	-1019.24853515625	821.6676635742188	-24.7380256652832	-1075.67041015625	815.9447021484375	23.53213119506836	-1218.061767578125	1716.549438476562	-320.7606201171875	-1011.481140136719	1747.881713867188	-256.6837463378906	-1040.6787109375	1748.369995117188	-350.4706420898438	-1168.716064453125	1712.3662109375	-185.0396881103516	-1145.509521484375	962.9544067382812	-453.6400146484375	-1111.092529296875	963.7930297851562	-82.00441741943359	-1009.748046875	996.4669189453125	-161.6268310546875	-1028.399291992188	1010.498291015625	-396.320556640625	-1110.816772460938	517.1392822265625	-405.2979431152344	-1130.394165039062	654.3965454101562	-440.7133178710938	-1212.316284179688	42.04044342041016	-403.7090148925781	-1193.633666992188	288.7767639160156	-422.8636169433594	-992.8984985351562	42.85668182373047	-338.0440673828125	-1052.049926757812	50.77200317382812	-320.2082214355469	-1087.510131835938	40.58987808227539	-420.2158203125	-1282.42333984375	48.68323135375977	-350.6578369140625	-1112.8671875	526.503173828125	-128.7474060058594	-1088.54296875	795.6504516601562	-86.40664672851562	-1231.328002929688	47.31718826293945	-147.8729400634766	-1142.179931640625	405.1813354492188	-127.0873336791992	-997.8973388671875	45.1455078125	-179.2445068359375	-1059.337646484375	49.76621627807617	-212.3104553222656	-1082.364990234375	45.4109001159668	-117.8508758544922	-1285.377685546875	48.24277114868164	-195.3120422363281	
